<?xml version="1.0" standalone="no"?>
<!DOCTYPE svg PUBLIC "-//W3C//DTD SVG 20010904//EN"
 "http://www.w3.org/TR/2001/REC-SVG-20010904/DTD/svg10.dtd">
<svg version="1.0" xmlns="http://www.w3.org/2000/svg"
 width="656.000000pt" height="656.000000pt" viewBox="0 0 656.000000 656.000000"
 preserveAspectRatio="xMidYMid meet">
<metadata>
Created by potrace 1.14, written by Peter Selinger 2001-2017
</metadata>
<g transform="translate(0.000000,656.000000) scale(0.100000,-0.100000)"
fill="#000000" stroke="none">
<path d="M3058 6475 c-1 -2 -34 -6 -73 -9 -101 -9 -157 -16 -240 -31 -222 -40
-495 -117 -642 -181 -28 -12 -54 -20 -57 -16 -3 3 -6 0 -6 -6 0 -7 -7 -12 -15
-12 -15 0 -249 -113 -328 -158 -70 -41 -229 -142 -272 -175 -23 -17 -53 -39
-65 -47 -12 -8 -28 -20 -34 -25 -6 -6 -31 -26 -55 -44 -130 -103 -362 -334
-476 -476 -91 -113 -215 -289 -215 -303 0 -6 -4 -12 -8 -14 -18 -7 -150 -253
-227 -423 -26 -57 -95 -236 -100 -259 -3 -11 -13 -47 -24 -80 -23 -71 -58
-201 -66 -242 -6 -37 -13 -72 -20 -104 -10 -45 -21 -116 -31 -195 -30 -230
-24 -685 12 -873 2 -12 6 -34 9 -50 20 -109 32 -170 38 -197 49 -201 113 -395
182 -550 40 -89 123 -254 151 -300 13 -22 27 -47 31 -55 4 -8 41 -66 82 -129
42 -62 81 -121 86 -130 6 -9 13 -18 16 -21 4 -3 24 -28 45 -56 60 -79 113
-142 180 -211 34 -35 58 -63 55 -63 -3 0 8 -9 24 -20 17 -11 26 -20 22 -20 -4
0 9 -15 30 -32 21 -18 47 -42 58 -53 35 -33 135 -118 158 -134 12 -8 26 -21
30 -28 4 -7 14 -13 21 -13 8 0 16 -7 20 -15 3 -8 12 -15 20 -15 8 0 16 -4 18
-8 2 -4 32 -28 68 -52 36 -25 67 -48 70 -51 11 -12 269 -157 340 -191 222
-107 491 -204 643 -234 10 -2 27 -6 37 -9 22 -7 58 -15 85 -19 11 -2 34 -6 50
-9 17 -4 46 -9 65 -12 19 -3 46 -7 60 -10 128 -23 228 -29 465 -29 237 0 365
5 365 14 0 3 12 5 28 6 40 0 153 19 297 48 58 12 228 58 280 76 33 11 60 20
60 20 0 -8 275 105 370 151 145 71 297 157 303 171 2 4 8 8 14 8 19 0 267 180
379 276 94 81 318 314 402 419 85 106 250 345 264 382 4 10 9 20 12 23 19 16
171 323 171 344 0 9 5 16 11 16 5 0 8 4 5 8 -2 4 2 21 9 37 12 26 34 78 40 95
1 3 4 12 8 20 18 44 89 284 102 348 2 9 10 49 18 87 25 113 32 164 53 340 3
31 16 319 15 370 0 51 -16 253 -26 335 -12 90 -16 112 -31 195 -12 64 -56 251
-63 270 -5 11 -18 54 -30 95 -27 91 -65 196 -97 268 -13 29 -24 55 -24 57 0 9
-112 233 -140 280 -16 28 -33 57 -37 65 -3 8 -33 55 -65 104 -32 48 -58 90
-58 92 0 2 -6 12 -14 21 -8 10 -48 61 -88 113 -41 52 -83 106 -93 119 -26 33
-323 329 -361 360 -24 20 -157 123 -225 174 -19 15 -32 23 -134 86 -44 28 -85
54 -91 58 -34 26 -284 153 -301 153 -7 0 -13 5 -13 10 0 6 -8 10 -18 10 -10 0
-22 4 -27 8 -6 4 -37 18 -70 31 -33 12 -68 27 -77 32 -10 5 -26 9 -36 9 -10 0
-21 3 -25 6 -10 10 -140 53 -162 54 -12 0 -25 4 -30 9 -6 6 -26 13 -45 16 -19
3 -60 12 -90 20 -30 8 -68 16 -85 19 -63 12 -141 26 -165 31 -14 3 -56 8 -95
11 -38 3 -74 8 -79 12 -11 6 -521 13 -528 7z m184 -1120 c9 9 218 2 278 -9 14
-3 47 -8 73 -11 27 -3 69 -10 95 -16 26 -6 55 -12 65 -14 172 -36 403 -128
575 -231 46 -27 91 -54 101 -59 21 -12 54 -37 158 -119 143 -113 324 -309 411
-446 20 -30 38 -57 41 -60 24 -20 144 -264 187 -378 47 -126 87 -269 99 -357
3 -16 6 -39 9 -50 4 -21 13 -105 21 -197 3 -32 5 -61 6 -65 1 -5 1 -10 0 -13
-1 -3 -3 -63 -6 -135 -4 -128 -11 -214 -21 -247 -5 -18 -10 -40 -18 -89 -3
-19 -10 -49 -15 -66 -5 -18 -7 -33 -4 -33 3 0 0 -7 -7 -15 -7 -8 -10 -15 -7
-15 10 0 -59 -198 -104 -295 -12 -27 -23 -52 -23 -55 -1 -3 -21 -41 -46 -85
-25 -44 -47 -84 -49 -90 -2 -5 -7 -12 -10 -15 -3 -3 -15 -20 -25 -39 -11 -19
-25 -42 -32 -50 -7 -9 -36 -47 -65 -86 -72 -94 -90 -116 -186 -211 -85 -85
-207 -187 -278 -233 -22 -14 -41 -29 -43 -33 -2 -5 -7 -8 -11 -8 -4 0 -45 -22
-91 -50 -46 -27 -87 -50 -93 -50 -5 0 -21 -8 -35 -18 -23 -16 -225 -100 -256
-107 -6 -1 -18 -5 -26 -8 -19 -8 -205 -54 -250 -62 -88 -16 -151 -23 -254 -30
-43 -3 -81 -6 -85 -7 -3 0 -8 0 -11 1 -3 1 -60 3 -126 6 -67 2 -137 6 -155 9
-19 3 -50 8 -69 11 -19 2 -46 7 -60 10 -14 3 -34 7 -45 9 -11 2 -49 12 -85 21
-36 9 -72 19 -80 20 -8 2 -15 4 -15 5 0 1 -7 3 -15 5 -49 10 -275 103 -335
137 -11 7 -33 18 -50 27 -30 15 -186 113 -208 131 -7 5 -47 37 -90 71 -91 71
-210 187 -282 274 -28 33 -53 61 -57 63 -5 2 -8 10 -8 18 0 8 -4 14 -8 14 -9
0 -139 195 -164 245 -8 17 -19 39 -26 50 -53 94 -181 439 -167 453 2 3 1 10
-4 16 -9 11 -20 61 -26 121 -2 17 -4 30 -5 30 -1 0 -3 9 -5 20 -13 69 -18 123
-22 225 -2 63 -4 120 -4 125 -1 16 11 177 16 210 2 17 6 46 9 65 6 45 18 110
30 155 1 6 6 26 10 45 19 86 71 235 116 335 13 28 22 51 22 52 -1 2 14 30 33
64 19 33 35 63 35 66 0 2 14 24 30 48 17 24 30 46 30 50 0 3 4 11 10 18 5 7
28 37 49 67 138 192 309 361 497 492 120 84 285 174 399 219 28 11 59 24 70
29 43 20 247 76 345 95 50 10 158 24 234 30 32 2 61 7 64 9 2 3 12 1 22 -4 10
-5 19 -7 22 -5z"/>
</g>
</svg>
