<svg width="403" height="109" viewBox="0 0 403 109" fill="none" xmlns="http://www.w3.org/2000/svg">
<path d="M360.83 108.24C338.03 108.24 319.49 89.69 319.49 66.89C319.49 44.09 338.04 25.55 360.83 25.55C383.63 25.55 402.18 44.1 402.18 66.89C402.18 89.7 383.63 108.24 360.83 108.24ZM360.83 41.17C346.64 41.17 335.1 52.71 335.1 66.9C335.1 81.09 346.64 92.6301 360.83 92.6301C375.02 92.6301 386.56 81.09 386.56 66.9C386.56 52.71 375.02 41.17 360.83 41.17Z" fill="#17EBFD"/>
<path d="M299.29 18.76C304.045 18.76 307.9 14.9052 307.9 10.15C307.9 5.39487 304.045 1.54004 299.29 1.54004C294.535 1.54004 290.68 5.39487 290.68 10.15C290.68 14.9052 294.535 18.76 299.29 18.76Z" fill="#ffffff"/>
<path d="M65.9402 27.6101C44.4602 27.6101 27.0202 44.8801 26.7502 66.3001C26.4802 87.6101 43.5202 105.25 64.8202 105.99C65.2002 106 65.5702 106.01 65.9402 106.01C66.0402 106.01 66.1502 106.01 66.2502 106.01C66.3902 106.01 66.5302 106.01 66.6702 106C78.9902 105.79 92.5602 100.24 99.6902 91.6401C101.27 89.7301 100.97 86.8701 99.0602 85.3001L94.7902 81.8001C93.1202 80.4301 90.6802 80.5101 89.1302 82.0101C83.9002 87.1101 75.3302 91.1601 65.9402 91.1601C54.6602 91.1601 45.1602 83.4501 42.4002 73.0301H101.86C103.5 73.0301 104.85 71.7701 104.99 70.1401C105.08 69.0401 105.13 67.9301 105.13 66.8101C105.14 45.1601 87.5902 27.6101 65.9402 27.6101ZM44.0802 59.7401C43.4502 59.7401 43.0102 59.1201 43.2202 58.5301C46.6102 49.2601 55.5202 42.6401 65.9602 42.6401C76.4202 42.6401 85.3302 49.2701 88.7102 58.5601C88.9202 59.1401 88.4802 59.7501 87.8702 59.7501H44.0802V59.7401Z" fill="#ffffff"/>
<path d="M11.0701 106H5.6001C2.9701 106 0.850098 103.87 0.850098 101.25V5C0.850098 2.37 2.9801 0.25 5.6001 0.25H11.0701C13.7001 0.25 15.8201 2.38 15.8201 5V101.25C15.8301 103.87 13.7001 106 11.0701 106Z" fill="#ffffff"/>
<path d="M275.63 5C275.63 2.37 273.5 0.25 270.88 0.25H265.41C262.78 0.25 260.66 2.38 260.66 5V35.05V36.06C258.63 34.46 256.44 33.06 254.13 31.89C250.42 30.01 246.46 28.74 242.36 28.11C242.33 28.11 242.31 28.1 242.28 28.1H242.26C241.93 28.05 241.66 28.01 241.4 27.98C241.34 27.97 241.28 27.97 241.22 27.96C241.19 27.96 241.16 27.95 241.13 27.95L241.09 27.94C240.88 27.91 240.66 27.89 240.43 27.87C240.32 27.86 240.22 27.85 240.12 27.84C240.07 27.84 240.02 27.83 239.98 27.83C239.93 27.83 239.88 27.82 239.84 27.82C239.72 27.81 239.59 27.8 239.45 27.79C239.27 27.78 239.09 27.77 238.91 27.76L238.8 27.75C238.76 27.75 238.72 27.74 238.68 27.74C238.6 27.73 238.53 27.73 238.45 27.73C238.17 27.72 237.88 27.7 237.55 27.7H237.54C237.51 27.7 237.49 27.7 237.46 27.7C237.12 27.69 236.79 27.69 236.45 27.69H236.44C236.41 27.69 236.39 27.69 236.36 27.69H236.34C236 27.69 235.71 27.69 235.44 27.7C231.44 27.8 227.51 28.51 223.74 29.8C219.93 31.11 216.35 33 213.11 35.41C209.9 37.8 207.08 40.65 204.73 43.88C202.35 47.15 200.5 50.76 199.23 54.58C197.92 58.54 197.26 62.67 197.26 66.87C197.26 71.01 197.91 75.09 199.18 79C200.41 82.78 202.21 86.34 204.53 89.59C206.82 92.8 209.57 95.64 212.7 98.03C215.87 100.45 219.36 102.36 223.09 103.72C227.36 105.27 231.85 106.06 236.42 106.06H236.44C236.77 106.06 237.11 106.06 237.45 106.05C237.5 106.05 237.54 106.05 237.59 106.05C237.61 106.05 237.63 106.05 237.65 106.05C237.95 106.04 238.19 106.03 238.45 106.02C238.54 106.02 238.63 106.01 238.72 106C238.77 106 238.81 105.99 238.86 105.99L239 105.98C239.14 105.97 239.29 105.96 239.44 105.95C239.59 105.94 239.74 105.92 239.88 105.91L240.01 105.9C240.05 105.9 240.1 105.89 240.14 105.89C240.23 105.88 240.32 105.87 240.41 105.87C240.66 105.84 240.91 105.82 241.16 105.78C241.18 105.78 241.21 105.77 241.23 105.77C241.28 105.76 241.33 105.76 241.38 105.75C241.65 105.72 241.95 105.67 242.27 105.63H242.28C242.3 105.63 242.33 105.62 242.35 105.62C246.46 105 250.42 103.72 254.12 101.84C256.43 100.67 258.62 99.27 260.65 97.67V101.27C260.65 103.9 262.78 106.02 265.4 106.02H270.87C273.5 106.02 275.62 103.89 275.62 101.27V5H275.63ZM236.44 91.07C232.91 91.07 229.51 90.32 226.32 88.85C222.17 86.94 218.66 83.9 216.15 80.06C213.58 76.13 212.22 71.56 212.22 66.85C212.22 62.08 213.61 57.46 216.25 53.49C218.82 49.62 222.42 46.58 226.66 44.7C229.75 43.33 233.04 42.64 236.44 42.64C249.79 42.64 260.66 53.5 260.66 66.85C260.66 80.2 249.79 91.06 236.44 91.07Z" fill="#ffffff"/>
<path d="M302.02 27.6499H296.55C293.92 27.6499 291.8 29.7799 291.8 32.3999V101.25C291.8 103.88 293.93 106 296.55 106H302.02C304.65 106 306.77 103.87 306.77 101.25V32.3999C306.78 29.7799 304.65 27.6499 302.02 27.6499Z" fill="#ffffff"/>
<path d="M188.47 65.4401C188.56 59.7701 187.75 54.5101 186.08 49.8001C184.4 45.0701 181.88 40.9701 178.57 37.6201C172.19 31.1501 163.17 27.7201 152.47 27.7201C144.28 27.7201 136.66 30.2401 130.59 34.8901V32.4501C130.59 29.7701 128.42 27.6001 125.74 27.6001H120.46C117.78 27.6001 115.61 29.7701 115.61 32.4501V101.15C115.61 103.83 117.78 106 120.46 106H125.74C128.42 106 130.59 103.83 130.59 101.15V64.3801C130.59 61.1301 131.26 58.0601 132.59 55.2301C133.81 52.6301 135.55 50.3101 137.75 48.3201C141.85 44.6201 147.31 42.4101 152.36 42.4101C155.5 42.4101 158.42 42.9201 161.04 43.9301C163.58 44.9101 165.81 46.3401 167.66 48.1901C169.52 50.0501 170.96 52.2901 171.95 54.8601C172.98 57.5401 173.5 60.5401 173.5 63.7801L173.51 101.24C173.51 103.87 175.64 105.99 178.26 105.99H183.73C186.36 105.99 188.48 103.86 188.48 101.24L188.47 65.4401Z" fill="#ffffff"/>
</svg>
